<mxfile host="drawio-plugin" modified="2022-05-26T06:00:40.901Z" agent="5.0 (Macintosh; Intel Mac OS X 11_6_3) AppleWebKit/537.36 (KHTML, like Gecko) Chrome/89.0.4389.114 Safari/537.36" etag="VHg75IYiZmb97_r-25wg" version="15.5.4" type="embed"><diagram id="23iRSUPoRavnBvh4doch" name="Page-1"><mxGraphModel dx="4100" dy="2344" grid="1" gridSize="10" guides="1" tooltips="1" connect="1" arrows="1" fold="1" page="0" pageScale="1" pageWidth="827" pageHeight="1169" math="0" shadow="0"><root><mxCell id="0"/><mxCell id="1" parent="0"/><mxCell id="62" value="" style="edgeStyle=orthogonalEdgeStyle;rounded=0;orthogonalLoop=1;jettySize=auto;html=1;" edge="1" parent="1" source="5" target="61"><mxGeometry relative="1" as="geometry"/></mxCell><mxCell id="5" value="init&lt;br&gt;file_mgr" style="rounded=0;whiteSpace=wrap;html=1;" vertex="1" parent="1"><mxGeometry x="-1660" y="-990" width="120" height="60" as="geometry"/></mxCell><mxCell id="43" value="" style="edgeStyle=orthogonalEdgeStyle;rounded=0;orthogonalLoop=1;jettySize=auto;html=1;" edge="1" parent="1" source="6" target="42"><mxGeometry relative="1" as="geometry"/></mxCell><mxCell id="6" value="init&lt;br&gt;cdn_cache_folder" style="rounded=0;whiteSpace=wrap;html=1;" vertex="1" parent="1"><mxGeometry x="-2140" y="-990" width="120" height="60" as="geometry"/></mxCell><mxCell id="12" value="" style="edgeStyle=orthogonalEdgeStyle;rounded=0;orthogonalLoop=1;jettySize=auto;html=1;" edge="1" parent="1" source="7" target="11"><mxGeometry relative="1" as="geometry"/></mxCell><mxCell id="7" value="downloader" style="rounded=0;whiteSpace=wrap;html=1;" vertex="1" parent="1"><mxGeometry x="-930" y="-990" width="120" height="60" as="geometry"/></mxCell><mxCell id="9" value="" style="endArrow=classic;html=1;rounded=0;entryX=0.5;entryY=0;entryDx=0;entryDy=0;" edge="1" parent="1" target="7"><mxGeometry width="50" height="50" relative="1" as="geometry"><mxPoint x="-870" y="-1150" as="sourcePoint"/><mxPoint x="-830" y="-730" as="targetPoint"/></mxGeometry></mxCell><mxCell id="10" value="get download task from server" style="text;html=1;strokeColor=none;fillColor=none;align=left;verticalAlign=middle;whiteSpace=wrap;rounded=0;" vertex="1" parent="1"><mxGeometry x="-860" y="-1180" width="260" height="100" as="geometry"/></mxCell><mxCell id="14" value="" style="edgeStyle=orthogonalEdgeStyle;rounded=0;orthogonalLoop=1;jettySize=auto;html=1;" edge="1" parent="1" source="11" target="13"><mxGeometry relative="1" as="geometry"/></mxCell><mxCell id="22" value="" style="edgeStyle=orthogonalEdgeStyle;rounded=0;orthogonalLoop=1;jettySize=auto;html=1;" edge="1" parent="1" source="11" target="21"><mxGeometry relative="1" as="geometry"/></mxCell><mxCell id="11" value="check cdn_cache_folder space" style="rounded=0;whiteSpace=wrap;html=1;" vertex="1" parent="1"><mxGeometry x="-930" y="-850" width="120" height="60" as="geometry"/></mxCell><mxCell id="18" value="" style="edgeStyle=orthogonalEdgeStyle;rounded=0;orthogonalLoop=1;jettySize=auto;html=1;" edge="1" parent="1" source="13" target="17"><mxGeometry relative="1" as="geometry"/></mxCell><mxCell id="20" value="" style="edgeStyle=orthogonalEdgeStyle;rounded=0;orthogonalLoop=1;jettySize=auto;html=1;" edge="1" parent="1" source="13" target="19"><mxGeometry relative="1" as="geometry"/></mxCell><mxCell id="13" value="check file exist" style="whiteSpace=wrap;html=1;rounded=0;" vertex="1" parent="1"><mxGeometry x="-930" y="-710" width="120" height="60" as="geometry"/></mxCell><mxCell id="24" value="" style="edgeStyle=orthogonalEdgeStyle;rounded=0;orthogonalLoop=1;jettySize=auto;html=1;" edge="1" parent="1" source="17" target="23"><mxGeometry relative="1" as="geometry"/></mxCell><mxCell id="28" style="edgeStyle=orthogonalEdgeStyle;rounded=0;orthogonalLoop=1;jettySize=auto;html=1;exitX=1;exitY=0.5;exitDx=0;exitDy=0;entryX=0;entryY=0.5;entryDx=0;entryDy=0;" edge="1" parent="1" source="17" target="26"><mxGeometry relative="1" as="geometry"/></mxCell><mxCell id="17" value="exist" style="whiteSpace=wrap;html=1;rounded=0;" vertex="1" parent="1"><mxGeometry x="-730" y="-710" width="110" height="60" as="geometry"/></mxCell><mxCell id="30" value="" style="edgeStyle=orthogonalEdgeStyle;rounded=0;orthogonalLoop=1;jettySize=auto;html=1;" edge="1" parent="1" source="19" target="29"><mxGeometry relative="1" as="geometry"/></mxCell><mxCell id="19" value="not exist" style="whiteSpace=wrap;html=1;rounded=0;" vertex="1" parent="1"><mxGeometry x="-930" y="-570" width="120" height="60" as="geometry"/></mxCell><mxCell id="21" value="failed callback if have not enough space" style="whiteSpace=wrap;html=1;rounded=0;" vertex="1" parent="1"><mxGeometry x="-730" y="-850" width="120" height="60" as="geometry"/></mxCell><mxCell id="23" value="if downloaded, success callback" style="whiteSpace=wrap;html=1;rounded=0;" vertex="1" parent="1"><mxGeometry x="-530" y="-770" width="120" height="60" as="geometry"/></mxCell><mxCell id="26" value="if downloading, failed callback" style="whiteSpace=wrap;html=1;rounded=0;" vertex="1" parent="1"><mxGeometry x="-530" y="-660" width="120" height="60" as="geometry"/></mxCell><mxCell id="32" value="" style="edgeStyle=orthogonalEdgeStyle;rounded=0;orthogonalLoop=1;jettySize=auto;html=1;" edge="1" parent="1" source="29" target="31"><mxGeometry relative="1" as="geometry"/></mxCell><mxCell id="34" value="" style="edgeStyle=orthogonalEdgeStyle;rounded=0;orthogonalLoop=1;jettySize=auto;html=1;" edge="1" parent="1" source="29" target="33"><mxGeometry relative="1" as="geometry"/></mxCell><mxCell id="29" value="check downloading task count" style="whiteSpace=wrap;html=1;rounded=0;" vertex="1" parent="1"><mxGeometry x="-930" y="-430" width="120" height="60" as="geometry"/></mxCell><mxCell id="31" value="failed callback if too much running task" style="whiteSpace=wrap;html=1;rounded=0;" vertex="1" parent="1"><mxGeometry x="-730" y="-430" width="120" height="60" as="geometry"/></mxCell><mxCell id="36" value="" style="edgeStyle=orthogonalEdgeStyle;rounded=0;orthogonalLoop=1;jettySize=auto;html=1;" edge="1" parent="1" source="33" target="35"><mxGeometry relative="1" as="geometry"/></mxCell><mxCell id="33" value="create record in db, status downloading" style="whiteSpace=wrap;html=1;rounded=0;" vertex="1" parent="1"><mxGeometry x="-930" y="-290" width="120" height="60" as="geometry"/></mxCell><mxCell id="38" value="" style="edgeStyle=orthogonalEdgeStyle;rounded=0;orthogonalLoop=1;jettySize=auto;html=1;" edge="1" parent="1" source="35" target="37"><mxGeometry relative="1" as="geometry"/></mxCell><mxCell id="40" style="edgeStyle=orthogonalEdgeStyle;rounded=0;orthogonalLoop=1;jettySize=auto;html=1;exitX=0.5;exitY=1;exitDx=0;exitDy=0;entryX=0.5;entryY=0;entryDx=0;entryDy=0;" edge="1" parent="1" source="35" target="39"><mxGeometry relative="1" as="geometry"/></mxCell><mxCell id="35" value="start download" style="whiteSpace=wrap;html=1;rounded=0;" vertex="1" parent="1"><mxGeometry x="-930" y="-150" width="120" height="60" as="geometry"/></mxCell><mxCell id="37" value="if failed&amp;nbsp;&lt;br&gt;failed callback&lt;br&gt;delete file on disk&lt;br&gt;delete record in db" style="whiteSpace=wrap;html=1;rounded=0;" vertex="1" parent="1"><mxGeometry x="-1020" y="100" width="120" height="60" as="geometry"/></mxCell><mxCell id="39" value="if success&amp;nbsp;&lt;br&gt;success callback&lt;br&gt;update db record&lt;br&gt;space used modify" style="whiteSpace=wrap;html=1;rounded=0;" vertex="1" parent="1"><mxGeometry x="-800" y="100" width="120" height="60" as="geometry"/></mxCell><mxCell id="41" value="on downloading&lt;br&gt;every 2 seconds&lt;br&gt;&lt;br&gt;check size =&amp;gt; too big failed&lt;br&gt;check speed =&amp;gt; too slow failed&lt;br&gt;update record in db" style="rounded=0;whiteSpace=wrap;html=1;align=center;verticalAlign=middle;" vertex="1" parent="1"><mxGeometry x="-735" y="-190" width="255" height="160" as="geometry"/></mxCell><mxCell id="45" value="" style="edgeStyle=orthogonalEdgeStyle;rounded=0;orthogonalLoop=1;jettySize=auto;html=1;" edge="1" parent="1" source="42" target="44"><mxGeometry relative="1" as="geometry"/></mxCell><mxCell id="42" value="read config" style="whiteSpace=wrap;html=1;rounded=0;" vertex="1" parent="1"><mxGeometry x="-2140" y="-850" width="120" height="60" as="geometry"/></mxCell><mxCell id="44" value="create folder and db file if not exist" style="whiteSpace=wrap;html=1;rounded=0;" vertex="1" parent="1"><mxGeometry x="-2140" y="-710" width="120" height="60" as="geometry"/></mxCell><mxCell id="51" value="" style="edgeStyle=orthogonalEdgeStyle;rounded=0;orthogonalLoop=1;jettySize=auto;html=1;" edge="1" parent="1" source="48" target="50"><mxGeometry relative="1" as="geometry"/></mxCell><mxCell id="48" value="clean not finished download task&lt;br&gt;delete file on disk&lt;br&gt;delete record in db" style="whiteSpace=wrap;html=1;rounded=0;" vertex="1" parent="1"><mxGeometry x="-1660" y="-760" width="120" height="60" as="geometry"/></mxCell><mxCell id="53" value="" style="edgeStyle=orthogonalEdgeStyle;rounded=0;orthogonalLoop=1;jettySize=auto;html=1;" edge="1" parent="1" source="50" target="52"><mxGeometry relative="1" as="geometry"/></mxCell><mxCell id="50" value="scan db record clean files which not exist on disk" style="whiteSpace=wrap;html=1;rounded=0;" vertex="1" parent="1"><mxGeometry x="-1660" y="-640" width="120" height="60" as="geometry"/></mxCell><mxCell id="55" value="" style="edgeStyle=orthogonalEdgeStyle;rounded=0;orthogonalLoop=1;jettySize=auto;html=1;" edge="1" parent="1" source="52" target="54"><mxGeometry relative="1" as="geometry"/></mxCell><mxCell id="52" value="scan folder clean file which not in db" style="whiteSpace=wrap;html=1;rounded=0;" vertex="1" parent="1"><mxGeometry x="-1660" y="-520" width="120" height="60" as="geometry"/></mxCell><mxCell id="57" value="" style="edgeStyle=orthogonalEdgeStyle;rounded=0;orthogonalLoop=1;jettySize=auto;html=1;" edge="1" parent="1" source="54" target="56"><mxGeometry relative="1" as="geometry"/></mxCell><mxCell id="54" value="check used size" style="whiteSpace=wrap;html=1;rounded=0;" vertex="1" parent="1"><mxGeometry x="-1660" y="-390" width="120" height="60" as="geometry"/></mxCell><mxCell id="59" value="" style="edgeStyle=orthogonalEdgeStyle;rounded=0;orthogonalLoop=1;jettySize=auto;html=1;" edge="1" parent="1" source="56" target="58"><mxGeometry relative="1" as="geometry"/></mxCell><mxCell id="56" value="if used size&amp;lt;10G, check space by gen space holder files" style="whiteSpace=wrap;html=1;rounded=0;" vertex="1" parent="1"><mxGeometry x="-1660" y="-270" width="120" height="60" as="geometry"/></mxCell><mxCell id="58" value="delete space holder files" style="whiteSpace=wrap;html=1;rounded=0;" vertex="1" parent="1"><mxGeometry x="-1660" y="-150" width="120" height="60" as="geometry"/></mxCell><mxCell id="63" style="edgeStyle=orthogonalEdgeStyle;rounded=0;orthogonalLoop=1;jettySize=auto;html=1;exitX=0.5;exitY=1;exitDx=0;exitDy=0;entryX=0.5;entryY=0;entryDx=0;entryDy=0;" edge="1" parent="1" source="61" target="48"><mxGeometry relative="1" as="geometry"/></mxCell><mxCell id="61" value="clean space holder file if exist" style="whiteSpace=wrap;html=1;rounded=0;" vertex="1" parent="1"><mxGeometry x="-1660" y="-880" width="120" height="60" as="geometry"/></mxCell></root></mxGraphModel></diagram></mxfile>